<svg width="200" height="301" viewBox="0 0 200 301" fill="none" xmlns="http://www.w3.org/2000/svg">
<path d="M100 0.5C126.522 0.5 151.957 11.0357 170.711 29.7893C189.464 48.543 200 73.9783 200 100.5C200 150 164 191.167 116.667 199.167V233.833H150V267.167H116.667V300.5H83.3333V267.167H50V233.833H83.3333V199.167C36 191.167 0 150 0 100.5C0 73.9783 10.5357 48.543 29.2893 29.7893C48.043 11.0357 73.4783 0.5 100 0.5ZM100 33.8333C82.3189 33.8333 65.362 40.8571 52.8595 53.3595C40.3571 65.862 33.3333 82.8189 33.3333 100.5C33.3333 118.181 40.3571 135.138 52.8595 147.64C65.362 160.143 82.3189 167.167 100 167.167C117.681 167.167 134.638 160.143 147.14 147.64C159.643 135.138 166.667 118.181 166.667 100.5C166.667 82.8189 159.643 65.862 147.14 53.3595C134.638 40.8571 117.681 33.8333 100 33.8333Z" fill="#EFEFEF"/>
</svg>
