<svg width="20" height="20" viewBox="0 0 20 20" fill="none" xmlns="http://www.w3.org/2000/svg">
<path d="M19.9328 17.4161L17.0801 6.00471C16.9317 5.41135 16.4379 5.00002 15.8742 5.00002H13.5207C13.6602 4.60744 13.7504 4.19064 13.7504 3.75001C13.7504 1.67891 12.0715 0 10.0004 0C7.92929 0 6.25038 1.67891 6.25038 3.75001C6.25038 4.19064 6.34022 4.60744 6.48007 5.00002H4.12654C3.56287 5.00002 3.06873 5.41174 2.92068 6.00471L0.067155 17.4161C-0.258237 18.7172 0.639813 19.9997 1.87615 19.9997H18.1242C19.3602 19.9997 20.2582 18.7172 19.9328 17.4161ZM10 4.99963C9.31094 4.99963 8.75 4.43869 8.75 3.74962C8.75 3.06056 9.31094 2.49962 10 2.49962C10.6891 2.49962 11.25 3.06056 11.25 3.74962C11.25 4.43869 10.6891 4.99963 10 4.99963Z" fill="#D9D9D9"/>
</svg>
