<svg width="300" height="300" viewBox="0 0 300 300" fill="none" xmlns="http://www.w3.org/2000/svg">
<path d="M100 100C121.5 100 141.667 106.833 157.833 118.5L243 33.3333H166.667V0H300V133.333H266.667V56.8333L181.5 141.667C193.167 158.333 200 178.333 200 200C200 226.522 189.464 251.957 170.711 270.711C151.957 289.464 126.522 300 100 300C73.4783 300 48.043 289.464 29.2893 270.711C10.5357 251.957 0 226.522 0 200C0 173.478 10.5357 148.043 29.2893 129.289C48.043 110.536 73.4783 100 100 100ZM100 133.333C82.3189 133.333 65.362 140.357 52.8595 152.86C40.3571 165.362 33.3333 182.319 33.3333 200C33.3333 217.681 40.3571 234.638 52.8595 247.14C65.362 259.643 82.3189 266.667 100 266.667C117.681 266.667 134.638 259.643 147.14 247.14C159.643 234.638 166.667 217.681 166.667 200C166.667 182.319 159.643 165.362 147.14 152.86C134.638 140.357 117.681 133.333 100 133.333Z" fill="#EFEFEF"/>
</svg>
