<svg width="20" height="20" viewBox="0 0 20 20" fill="none" xmlns="http://www.w3.org/2000/svg">
<path d="M6.25 11.25H4.0625C3.88984 11.25 3.75 11.1102 3.75 10.9375V10.3125C3.75 10.1398 3.88984 10 4.0625 10H6.25V7.5H4.0625C3.88984 7.5 3.75 7.36016 3.75 7.1875V6.5625C3.75 6.38984 3.88984 6.25 4.0625 6.25H6.25V3.75H4.0625C3.88984 3.75 3.75 3.61016 3.75 3.4375V2.8125C3.75 2.63984 3.88984 2.5 4.0625 2.5H6.25V1.25C6.25 0.559766 5.69023 0 5 0H1.25C0.559766 0 0 0.559766 0 1.25V18.75C0 18.8582 0.0355469 18.9547 0.0613281 19.0547L6.25 12.8664V11.25ZM18.75 13.75H17.5V15.9375C17.5 16.1102 17.3602 16.25 17.1875 16.25H16.5625C16.3898 16.25 16.25 16.1102 16.25 15.9375V13.75H13.75V15.9375C13.75 16.1102 13.6102 16.25 13.4375 16.25H12.8125C12.6398 16.25 12.5 16.1102 12.5 15.9375V13.75H10V15.9375C10 16.1102 9.86016 16.25 9.6875 16.25H9.0625C8.88984 16.25 8.75 16.1102 8.75 15.9375V13.75H7.13398L0.945312 19.9387C1.04531 19.9645 1.14219 20 1.25 20H18.75C19.4402 20 20 19.4402 20 18.75V15C20 14.3098 19.4402 13.75 18.75 13.75Z" fill="#D9D9D9"/>
</svg>
